
        <svg xmlns="http://www.w3.org/2000/svg" xmlns:xlink="http://www.w3.org/1999/xlink" version="1.1" width="3218.181818181818" 
        height="840.2070511271962" viewBox="0 0 3218.181818181818 840.2070511271962">
			
			<g transform="scale(10.909090909090908) translate(10, 10)">
				<defs id="SvgjsDefs5545"></defs><g id="SvgjsG5546" featureKey="xG21Y3-0" transform="matrix(0.6433953039468402,0,0,0.6433953039468402,-4.6704063984496305,-3.6602759676017564)" fill="#3dd2cc"><path xmlns="http://www.w3.org/2000/svg" d="M30.487,51.552c-1.02,0-1.984,0.229-2.854,0.634c0.463,0.43,0.756,1.036,0.756,1.716c0,1.299-1.053,2.352-2.351,2.352  c-0.68,0-1.286-0.292-1.718-0.754c-0.4,0.868-0.632,1.832-0.632,2.853c0,3.756,3.044,6.799,6.799,6.799s6.8-3.043,6.8-6.799  C37.287,54.595,34.242,51.552,30.487,51.552z"></path><path xmlns="http://www.w3.org/2000/svg" d="M81.67,38.557c4.09-4.834,7.106-10.607,8.67-16.953c-8.578,9.088-23.557,15.115-40.615,15.115  c-17.059,0-32.039-6.027-40.617-15.115c1.589,6.446,4.679,12.299,8.868,17.18C11.533,42.914,7.259,50.131,7.259,58.352  c0,12.829,10.4,23.229,23.229,23.229c8.184,0,15.376-4.236,19.513-10.63c4.138,6.394,11.328,10.63,19.514,10.63  c12.829,0,23.228-10.399,23.228-23.229C92.741,49.98,88.312,42.646,81.67,38.557z M30.487,74.001  c-8.643,0-15.649-7.006-15.649-15.649c0-8.643,7.006-15.651,15.649-15.651s15.651,7.009,15.651,15.651  C46.139,66.995,39.13,74.001,30.487,74.001z M69.514,74.001c-8.645,0-15.65-7.006-15.65-15.649c0-8.643,7.006-15.651,15.65-15.651  c8.643,0,15.649,7.009,15.649,15.651C85.163,66.995,78.156,74.001,69.514,74.001z"></path><path xmlns="http://www.w3.org/2000/svg" d="M73.961,56.253c-1.298,0-2.351-1.053-2.351-2.352c0-0.68,0.293-1.286,0.754-1.716c-0.867-0.404-1.832-0.634-2.851-0.634  c-3.757,0-6.802,3.043-6.802,6.8c0,3.756,3.045,6.799,6.802,6.799c3.754,0,6.799-3.043,6.799-6.799c0-1.021-0.231-1.984-0.635-2.853  C75.249,55.961,74.641,56.253,73.961,56.253z"></path><polygon xmlns="http://www.w3.org/2000/svg" points="50,94.311 43.093,82.586 50,75.164 56.907,82.586 "></polygon><path xmlns="http://www.w3.org/2000/svg" d="M48.004,28.341l-15.899-6.125v9.812c5.498,1.509,11.461,2.315,17.62,2.315c4.895,0,9.666-0.511,14.177-1.476V22.217  L48.004,28.341z"></path><polygon xmlns="http://www.w3.org/2000/svg" points="48.004,26.198 19.375,15.169 48.004,5.689 76.635,15.169 "></polygon></g><g id="SvgjsG5547" featureKey="n48U4P-0" transform="matrix(1.258249969664994,0,0,1.258249969664994,74.22101770069199,10.477532296221717)" fill="#3dd2cc"><path d="M5.98 17.78 l0 0.16 c0.02 0.2 0.04 0.4 0.04 0.62 l0 0.18 l-0.02 0 l0 0.06 c0 0.26 0 0.52 -0.04 0.78 c-0.08 0.8 -0.52 2.72 -2.66 2.72 c-2.28 0 -2.62 -2.32 -2.66 -2.98 c-0.02 -0.18 -0.02 -0.36 -0.02 -0.54 l0 -0.48 l0 -1.1 l1.8 0 l0 1.62 c0 0.22 0 0.44 0.04 0.66 c0.02 0.14 0.06 0.28 0.1 0.42 c0.02 0.06 0.06 0.12 0.08 0.2 c0.14 0.26 0.36 0.4 0.64 0.42 c0.1 0.02 0.2 0 0.3 -0.02 c0.18 -0.04 0.32 -0.16 0.44 -0.32 c0.06 -0.08 0.1 -0.18 0.14 -0.28 c0.06 -0.16 0.08 -0.32 0.1 -0.48 c0.02 -0.2 0.04 -0.42 0.04 -0.62 l0 -0.72 c-0.08 -0.88 -0.38 -1.62 -1.12 -2.66 c-0.84 -1.18 -1.38 -2.14 -1.76 -2.9 c-0.86 -1.54 -0.8 -2.88 -0.8 -2.88 l0 -0.58 l0.04 -0.36 c0.04 -0.46 0.38 -2.72 2.72 -2.72 c2.08 0 2.5 1.98 2.6 2.78 c0.02 0.24 0.02 0.5 0.02 0.74 l0 1.64 l0 0.06 c0 0.12 0 0.12 -0.1 0.12 l-0.12 0 l-0.82 0 l-0.52 0 l-0.1 0 c-0.02 0 -0.04 -0.02 -0.04 -0.04 l0 -0.16 l0 -1.54 c0 -0.22 0 -0.44 -0.04 -0.66 c-0.02 -0.18 -0.04 -0.34 -0.1 -0.52 c-0.04 -0.1 -0.08 -0.2 -0.16 -0.3 c-0.12 -0.18 -0.28 -0.3 -0.48 -0.34 c-0.1 -0.02 -0.22 -0.02 -0.3 0 c-0.24 0.04 -0.42 0.16 -0.54 0.38 c-0.08 0.14 -0.14 0.3 -0.18 0.48 c-0.04 0.2 -0.06 0.38 -0.08 0.6 l0 0.28 l0 0.18 c0.04 1.02 0.34 1.82 1.18 2.98 l0.06 0.08 c0.34 0.46 1.98 2.78 2.28 4.72 z M16.43 7.800000000000001 l-1.5 0 l0 5.06 l0.02 3.34 l0 0.46 l0 1.12 l0 0.74 l0 0.66 l0 3.12 l-1.82 0 l0 -8.16 l0 -6.34 l-1.5 0 l0 -1.82 l1.5 0 l1.64 0 l0.16 0 l1.5 0 l0 1.82 z M27.42 16.48 l0 0.04 l0 0.46 l0 0.06 l0 1.76 c0 0.26 -0.02 0.52 -0.04 0.78 c-0.08 0.8 -0.52 2.72 -2.66 2.72 c-2.3 0 -2.62 -2.32 -2.68 -2.98 l0 -0.54 l0 -0.48 l0 -5.4 l0 -6.92 l0.76 0 l0.94 0 l0.1 0 l0 6.34 l0 0.44 l0 0.32 l0 5.74 c0 0.22 0 0.44 0.04 0.66 c0.02 0.14 0.04 0.28 0.1 0.42 l0.08 0.2 c0.14 0.26 0.36 0.4 0.64 0.42 c0.1 0.02 0.2 0 0.3 -0.02 c0.18 -0.04 0.32 -0.16 0.42 -0.32 c0.08 -0.08 0.12 -0.18 0.16 -0.28 c0.04 -0.16 0.08 -0.32 0.1 -0.48 c0.02 -0.2 0.02 -0.42 0.02 -0.62 l0 -1.02 l0 -11.8 l1.22 0 l0.06 0 l0.44 0 l0 10.5 z M38.63 10.34 l0 7.46 l0 0.92 c0 0.34 -0.02 0.7 -0.04 1.04 c-0.02 0.2 -0.04 0.4 -0.08 0.58 c0 0.02 0 0.04 -0.02 0.06 l0 0.08 l-0.02 0.02 c-0.38 1.92 -2.38 1.8 -2.38 1.8 l-0.66 0 l-1.02 0 l-1.38 0 l0 -8.16 c0 -2.72 0 -5.44 0.02 -8.16 l1.8 0 l1.24 0 s2 -0.12 2.38 1.8 c0.02 0.02 0.02 0.02 0.02 0.04 l0 0.06 c0.02 0.02 0.02 0.04 0.02 0.06 c0.04 0.2 0.06 0.38 0.08 0.58 c0.02 0.34 0.04 0.7 0.04 1.04 l0 0.78 z M36.81 18.8 l0 -0.66 l0 -0.06 l0 -0.08 l0 -6.88 l0 -0.1 l0 -1.54 c0 -0.26 -0.02 -0.52 -0.06 -0.8 c-0.02 -0.1 -0.04 -0.2 -0.08 -0.3 c-0.02 -0.08 -0.06 -0.14 -0.08 -0.2 c-0.14 -0.22 -0.32 -0.34 -0.56 -0.38 l-0.12 0 l-0.56 0 l-0.5 0 l0 0.14 l0 0.04 l0 2.18 l0 0.64 l0 0.4 l0 0.56 l-0.02 1.1 l0.02 0 l0 1.28 l0 2.9 l0 0.74 l0 0.74 l0 1.74 l0 0.18 c0 0.02 0.02 0.04 0.04 0.04 l0.08 0 l0.94 0 l0.12 0 c0.24 -0.04 0.42 -0.16 0.56 -0.38 l0.08 -0.18 c0.04 -0.1 0.06 -0.22 0.08 -0.32 c0.04 -0.26 0.06 -0.54 0.06 -0.8 z M49.16 5.98 l1.58 0 l-0.94 3.12 l-0.2 0.66 c-0.08 0.26 -0.16 0.5 -0.22 0.76 c-0.12 0.36 -0.24 0.74 -0.34 1.1 l-0.14 0.48 l-0.5 1.6 l0 2 l0 0.5 l0 0.46 l0 1.12 l0 0.74 l0 0.66 l0 3.12 l-1.8 0 l0 -0.4 l0 -0.68 l0 -6.12 l0 -1.28 c-0.78 -2.62 -1.56 -5.22 -2.36 -7.84 l1.58 0 l1.66 5.56 z M69.5 16.4 c0.02 0 0.02 0.02 0.02 0.04 l0 0.08 l0 2.28 c0 0.26 -0.02 0.52 -0.04 0.78 c-0.1 0.8 -0.54 2.72 -2.66 2.72 c-2.3 0 -2.62 -2.32 -2.68 -2.98 c0 -0.18 -0.02 -0.36 -0.02 -0.54 l0 -0.48 l0 -8.66 c0 -0.2 0.02 -0.38 0.02 -0.58 c0 -0.12 0.02 -0.24 0.02 -0.36 c0.06 -0.46 0.4 -2.72 2.74 -2.72 c2.08 0 2.5 1.98 2.58 2.78 c0.02 0.24 0.04 0.5 0.04 0.74 l0 1.64 l0 0.06 c0 0.12 -0.02 0.12 -0.1 0.12 l-0.12 0 l-0.82 0 l-0.54 0 l-0.1 0 s-0.02 -0.02 -0.02 -0.04 c0 -0.06 -0.02 -0.12 -0.02 -0.16 l0 -1.54 c0 -0.22 0 -0.44 -0.02 -0.66 c-0.02 -0.18 -0.06 -0.34 -0.1 -0.52 c-0.04 -0.1 -0.1 -0.2 -0.16 -0.3 c-0.12 -0.18 -0.28 -0.3 -0.5 -0.34 c-0.1 -0.02 -0.2 -0.02 -0.3 0 c-0.22 0.04 -0.4 0.16 -0.52 0.38 c-0.1 0.14 -0.16 0.3 -0.18 0.48 c-0.04 0.2 -0.08 0.38 -0.08 0.6 l0 0.28 l0 9.32 c0 0.22 0 0.44 0.04 0.66 c0.02 0.14 0.04 0.28 0.08 0.42 l0.1 0.2 c0.14 0.26 0.36 0.4 0.64 0.42 c0.1 0.02 0.2 0 0.3 -0.02 c0.18 -0.04 0.32 -0.16 0.42 -0.32 c0.06 -0.08 0.12 -0.18 0.16 -0.28 c0.04 -0.16 0.08 -0.32 0.1 -0.48 c0.02 -0.2 0.02 -0.42 0.02 -0.62 l0 -0.6 l-0.2 0 l-0.06 0 l-0.84 0 l0 -1.82 l0.02 0 l0.72 0 l0.1 0 l0.28 0 l1.68 0 l0 0.02 z M77.13 20.48 l1.04 0 l0 1.82 l-3.04 0 l0 -8.16 l0 -8.16 l2.96 0 l0.08 0 l0 1.82 l-0.66 0 l-0.42 0 c-0.14 0 -0.14 0 -0.14 0.18 l0 2.18 l0 1.6 l-0.02 1.1 l0.12 0 l0.7 0 l0.12 0 l0.3 0 l0 1.82 l-0.26 0 l-0.04 0 l-0.92 0 l0 1 l0 2.1 l0 0.74 l0 1.74 l0 0.18 c0 0.02 0.02 0.04 0.04 0.04 l0.08 0 l0.06 0 z M89.34 16.66 l0 1.12 l0 0.74 l0 0.66 l0 3.12 l-0.04 0 l-1.78 0 l-0.02 0 c-0.62 -2.72 -1.24 -5.44 -1.84 -8.16 l-0.06 -0.3 l0 2.36 l0 0.46 l0 1.12 l0 0.74 l0 0.66 l0 3.12 l-1.82 0 l0 -8.16 l0 -8.16 l0.04 0 l1.76 0 l0.04 0 l1.54 6.88 l0.36 1.6 l0 -0.32 l0 -8.16 l1.8 0 l0.02 6.88 l0 3.34 l0 0.46 z M96.73 12.86 l0.02 3.34 l0 0.46 l0 1.12 l0 0.74 l0 0.66 l0 3.12 l-1.8 0 l0 -8.16 l0 -8.16 l1.78 0 l0 6.88 z M107.74000000000001 16.48 l0 0.04 l0 0.46 l0 0.06 l0 1.76 c0 0.26 -0.02 0.52 -0.04 0.78 c-0.08 0.8 -0.52 2.72 -2.66 2.72 c-2.3 0 -2.62 -2.32 -2.68 -2.98 l0 -0.54 l0 -0.48 l0 -5.4 l0 -6.92 l0.76 0 l0.94 0 l0.1 0 l0 6.34 l0 0.44 l0 0.32 l0 5.74 c0 0.22 0 0.44 0.04 0.66 c0.02 0.14 0.04 0.28 0.1 0.42 l0.08 0.2 c0.14 0.26 0.36 0.4 0.64 0.42 c0.1 0.02 0.2 0 0.3 -0.02 c0.18 -0.04 0.32 -0.16 0.42 -0.32 c0.08 -0.08 0.12 -0.18 0.16 -0.28 c0.04 -0.16 0.08 -0.32 0.1 -0.48 c0.02 -0.2 0.02 -0.42 0.02 -0.62 l0 -1.02 l0 -11.8 l1.22 0 l0.06 0 l0.44 0 l0 10.5 z M118.73 17.78 l0 0.16 c0.02 0.2 0.04 0.4 0.04 0.62 l0 0.18 l-0.02 0 l0 0.06 c0 0.26 0 0.52 -0.04 0.78 c-0.08 0.8 -0.52 2.72 -2.66 2.72 c-2.28 0 -2.62 -2.32 -2.66 -2.98 c-0.02 -0.18 -0.02 -0.36 -0.02 -0.54 l0 -0.48 l0 -1.1 l1.8 0 l0 1.62 c0 0.22 0 0.44 0.04 0.66 c0.02 0.14 0.06 0.28 0.1 0.42 c0.02 0.06 0.06 0.12 0.08 0.2 c0.14 0.26 0.36 0.4 0.64 0.42 c0.1 0.02 0.2 0 0.3 -0.02 c0.18 -0.04 0.32 -0.16 0.44 -0.32 c0.06 -0.08 0.1 -0.18 0.14 -0.28 c0.06 -0.16 0.08 -0.32 0.1 -0.48 c0.02 -0.2 0.04 -0.42 0.04 -0.62 l0 -0.72 c-0.08 -0.88 -0.38 -1.62 -1.12 -2.66 c-0.84 -1.18 -1.38 -2.14 -1.76 -2.9 c-0.86 -1.54 -0.8 -2.88 -0.8 -2.88 l0 -0.58 l0.04 -0.36 c0.04 -0.46 0.38 -2.72 2.72 -2.72 c2.08 0 2.5 1.98 2.6 2.78 c0.02 0.24 0.02 0.5 0.02 0.74 l0 1.64 l0 0.06 c0 0.12 0 0.12 -0.1 0.12 l-0.12 0 l-0.82 0 l-0.52 0 l-0.1 0 c-0.02 0 -0.04 -0.02 -0.04 -0.04 l0 -0.16 l0 -1.54 c0 -0.22 0 -0.44 -0.04 -0.66 c-0.02 -0.18 -0.04 -0.34 -0.1 -0.52 c-0.04 -0.1 -0.08 -0.2 -0.16 -0.3 c-0.12 -0.18 -0.28 -0.3 -0.48 -0.34 c-0.1 -0.02 -0.22 -0.02 -0.3 0 c-0.24 0.04 -0.42 0.16 -0.54 0.38 c-0.08 0.14 -0.14 0.3 -0.18 0.48 c-0.04 0.2 -0.06 0.38 -0.08 0.6 l0 0.28 l0 0.18 c0.04 1.02 0.34 1.82 1.18 2.98 l0.06 0.08 c0.34 0.46 1.98 2.78 2.28 4.72 z M137.13000000000002 12.719999999999999 l0 0 c-0.7 1.56 -2.02 1.5 -2.02 1.5 l-1.16 0 l0 0.46 l0 0.68 l0 0.32 l0 0.08 l0 0.9 l0 1.12 l0 0.74 l0 0.66 l0 3.12 l-1.8 0 l0 -8.16 l0 -4.28 l0 -2.34 l0 -1.54 l2.96 0 s2.38 -0.1 2.44 3.8 l0 0.14 l0 0.16 c0 0.28 0 0.54 -0.02 0.82 c-0.02 0.06 -0.02 0.14 -0.02 0.2 c0 0 -0.08 0.9 -0.36 1.54 c0 0.04 -0.02 0.06 -0.02 0.08 z M135.75 9.78 c0 -0.24 0 -0.48 -0.02 -0.74 c-0.02 -0.2 -0.06 -0.38 -0.12 -0.58 c-0.02 -0.12 -0.08 -0.22 -0.14 -0.32 c-0.1 -0.16 -0.22 -0.24 -0.38 -0.3 c-0.1 -0.04 -0.18 -0.04 -0.28 -0.04 l-0.7 0 c-0.16 0 -0.16 0 -0.16 0.18 l0 0.64 l0 1.44 l0 0.04 l0 0.06 l0 1.6 l0 0.46 c0 0.2 0 0.2 0.16 0.2 l0.7 0 c0.1 0 0.18 -0.02 0.28 -0.04 c0.16 -0.06 0.28 -0.16 0.38 -0.3 c0.06 -0.1 0.12 -0.22 0.14 -0.34 l0.02 0 c0 -0.06 0.02 -0.1 0.02 -0.16 c0.04 -0.14 0.06 -0.3 0.08 -0.46 c0.02 -0.24 0.02 -0.48 0.02 -0.72 l0 -0.62 z M147.68 19.18 l0.9 3.12 l-1.8 0 l-1.56 -5.44 l0 0.02 l-0.26 -0.84 l0 0.62 l0 1.12 l0 0.74 l0 0.66 l0 3.12 l-1.8 0 l0 -8.16 l0 -4.28 l0 -2.34 l0 -1.54 l2.96 0 s2.4 -0.1 2.44 3.8 c0 0.04 0 0.1 0.02 0.14 l0 0.16 l-0.04 0.82 c-0.02 0.06 -0.02 0.14 -0.02 0.2 c0 0 -0.08 0.9 -0.34 1.54 l-0.04 0.08 c-0.58 1.26 -1.54 1.46 -1.88 1.5 l0.1 0.38 l0.46 1.6 l0.14 0.46 c0.12 0.38 0.22 0.74 0.32 1.12 l0.22 0.74 z M144.96 10.16 l0 1.6 l0 0.46 c0 0.2 0 0.2 0.16 0.2 l0.7 0 c0.1 0 0.2 -0.02 0.28 -0.04 c0.16 -0.06 0.28 -0.16 0.38 -0.3 c0.06 -0.1 0.12 -0.22 0.14 -0.34 l0.02 0 c0 -0.06 0.02 -0.1 0.02 -0.16 c0.04 -0.14 0.06 -0.3 0.08 -0.46 c0.02 -0.24 0.02 -0.48 0.02 -0.72 l0 -0.62 c0 -0.24 0 -0.48 -0.02 -0.74 c-0.02 -0.2 -0.06 -0.38 -0.12 -0.58 c-0.02 -0.12 -0.08 -0.22 -0.14 -0.32 c-0.1 -0.16 -0.22 -0.24 -0.38 -0.3 c-0.08 -0.04 -0.18 -0.04 -0.28 -0.04 l-0.7 0 c-0.16 0 -0.16 0 -0.16 0.18 l0 0.64 l0 1.44 l0 0.04 l0 0.06 z M159.57 10.9 l0 6.44 l0 1.46 c0 0.26 -0.02 0.52 -0.04 0.78 c-0.08 0.8 -0.52 2.72 -2.66 2.72 c-2.3 0 -2.62 -2.32 -2.68 -2.98 l0 -0.54 l0 -0.48 l0 -8.66 l0 -0.58 c0 -0.12 0.02 -0.24 0.02 -0.36 c0.06 -0.46 0.4 -2.72 2.74 -2.72 c2.08 0 2.5 1.98 2.58 2.78 c0.02 0.24 0.04 0.5 0.04 0.74 l0 1.4 z M157.83 19.42 c0.02 -0.2 0.02 -0.42 0.02 -0.62 l0 -1.98 l0 -5.94 l0 -1.3 c0 -0.22 0 -0.44 -0.02 -0.66 c-0.02 -0.18 -0.06 -0.34 -0.1 -0.52 c-0.04 -0.1 -0.1 -0.2 -0.16 -0.3 c-0.12 -0.18 -0.28 -0.3 -0.5 -0.34 c-0.1 -0.02 -0.2 -0.02 -0.3 0 c-0.22 0.04 -0.4 0.16 -0.52 0.38 c-0.1 0.14 -0.14 0.3 -0.18 0.48 c-0.04 0.2 -0.08 0.38 -0.08 0.6 l0 0.28 l0 9.32 c0 0.22 0 0.44 0.04 0.66 c0.02 0.14 0.04 0.28 0.1 0.42 l0.08 0.2 c0.14 0.26 0.36 0.4 0.64 0.42 c0.1 0.02 0.2 0 0.3 -0.02 c0.18 -0.04 0.32 -0.16 0.42 -0.32 c0.08 -0.08 0.12 -0.18 0.16 -0.28 c0.04 -0.16 0.08 -0.32 0.1 -0.48 z"></path></g>
			</g>
		</svg>
	